<svg width="680" height="360" viewBox="0 0 680 360" xmlns="http://www.w3.org/2000/svg">
  <!-- Sombra -->
  <circle cx="340" cy="180" r="140" fill="#4a1060" opacity="0.15"/>
  <!-- Círculos -->
  <circle cx="340" cy="180" r="132" fill="#1a0828"/>
  <circle cx="340" cy="180" r="132" fill="none" stroke="#9b4dca" stroke-width="4"/>
  <circle cx="340" cy="180" r="116" fill="none" stroke="#4a1060" stroke-width="1.5"/>
  <circle cx="340" cy="180" r="100" fill="none" stroke="#7b2d9e" stroke-width="1" opacity="0.4"/>
  <!-- Puntos 8 posiciones -->
  <circle cx="340" cy="50"  r="6" fill="#f5c97a"/>
  <circle cx="433" cy="87"  r="6" fill="#b06fd4"/>
  <circle cx="470" cy="180" r="6" fill="#f5c97a"/>
  <circle cx="433" cy="273" r="6" fill="#b06fd4"/>
  <circle cx="340" cy="310" r="6" fill="#f5c97a"/>
  <circle cx="247" cy="273" r="6" fill="#b06fd4"/>
  <circle cx="210" cy="180" r="6" fill="#f5c97a"/>
  <circle cx="247" cy="87"  r="6" fill="#b06fd4"/>
  <!-- Mando -->
  <ellipse cx="340" cy="177" rx="68" ry="50" fill="#9b4dca" opacity="0.1"/>
  <rect x="270" y="117" width="40" height="16" rx="8" fill="#7b2d9e"/>
  <rect x="330" y="117" width="40" height="16" rx="8" fill="#f5c97a"/>
  <rect x="272" y="130" width="136" height="72" rx="22" fill="#1a0828"/>
  <rect x="272" y="130" width="136" height="72" rx="22" fill="none" stroke="#9b4dca" stroke-width="2"/>
  <!-- D-pad -->
  <rect x="295" y="150" width="9" height="22" rx="3" fill="#b06fd4"/>
  <rect x="287" y="158" width="25" height="7" rx="3" fill="#b06fd4"/>
  <!-- Botones -->
  <circle cx="389" cy="149" r="7" fill="#f5c97a"/>
  <circle cx="401" cy="161" r="7" fill="#9b4dca"/>
  <circle cx="389" cy="173" r="7" fill="#f5c97a"/>
  <circle cx="377" cy="161" r="7" fill="#b06fd4"/>
  <!-- Joysticks -->
  <circle cx="312" cy="184" r="13" fill="none" stroke="#9b4dca" stroke-width="2.5"/>
  <circle cx="312" cy="184" r="5" fill="#9b4dca"/>
  <circle cx="368" cy="184" r="13" fill="none" stroke="#9b4dca" stroke-width="2.5"/>
  <circle cx="368" cy="184" r="5" fill="#9b4dca"/>
  <rect x="333" y="158" width="12" height="6" rx="2" fill="#9b4dca" opacity="0.5"/>
  <!-- Línea y texto -->
  <line x1="255" y1="232" x2="425" y2="232" stroke="#7b2d9e" stroke-width="1.5" opacity="0.6"/>
  <text x="340" y="254" font-family="Arial, sans-serif" font-weight="700" font-size="13" letter-spacing="5" fill="#b06fd4" text-anchor="middle">ELITE GAMES</text>
</svg>
